<mxfile host="app.diagrams.net" modified="2023-05-12T06:19:27.932Z" agent="5.0 (Macintosh; Intel Mac OS X 10_15_7) AppleWebKit/537.36 (KHTML, like Gecko) Chrome/113.0.0.0 Safari/537.36" etag="kdtA7xI2R7YzuhqFFmhp" version="21.0.2" type="github">
  <diagram name="Page-1" id="526TDLz61kS1ts3_JN78">
    <mxGraphModel dx="1194" dy="527" grid="1" gridSize="10" guides="1" tooltips="1" connect="1" arrows="1" fold="1" page="1" pageScale="1" pageWidth="850" pageHeight="1100" math="0" shadow="0">
      <root>
        <mxCell id="0" />
        <mxCell id="1" parent="0" />
        <mxCell id="u5Gszo_vqLzepDqTOUiE-3" value="Kafka" style="shape=cylinder3;whiteSpace=wrap;html=1;boundedLbl=1;backgroundOutline=1;size=15;" vertex="1" parent="1">
          <mxGeometry x="425" y="330" width="60" height="80" as="geometry" />
        </mxCell>
        <mxCell id="u5Gszo_vqLzepDqTOUiE-6" value="Zookeeper" style="rounded=0;whiteSpace=wrap;html=1;" vertex="1" parent="1">
          <mxGeometry x="395" y="200" width="120" height="60" as="geometry" />
        </mxCell>
        <mxCell id="u5Gszo_vqLzepDqTOUiE-7" value="" style="endArrow=classic;startArrow=classic;html=1;rounded=0;exitX=0.5;exitY=0;exitDx=0;exitDy=0;exitPerimeter=0;entryX=0.5;entryY=1;entryDx=0;entryDy=0;" edge="1" parent="1" source="u5Gszo_vqLzepDqTOUiE-3" target="u5Gszo_vqLzepDqTOUiE-6">
          <mxGeometry width="50" height="50" relative="1" as="geometry">
            <mxPoint x="400" y="300" as="sourcePoint" />
            <mxPoint x="440" y="260" as="targetPoint" />
          </mxGeometry>
        </mxCell>
        <mxCell id="u5Gszo_vqLzepDqTOUiE-18" style="edgeStyle=orthogonalEdgeStyle;rounded=0;orthogonalLoop=1;jettySize=auto;html=1;exitX=1;exitY=0.5;exitDx=0;exitDy=0;entryX=0;entryY=0.5;entryDx=0;entryDy=0;entryPerimeter=0;" edge="1" parent="1" source="u5Gszo_vqLzepDqTOUiE-9" target="u5Gszo_vqLzepDqTOUiE-16">
          <mxGeometry relative="1" as="geometry">
            <Array as="points" />
          </mxGeometry>
        </mxCell>
        <mxCell id="u5Gszo_vqLzepDqTOUiE-9" value="Java App" style="rounded=0;whiteSpace=wrap;html=1;" vertex="1" parent="1">
          <mxGeometry x="380" y="40" width="150" height="90" as="geometry" />
        </mxCell>
        <mxCell id="u5Gszo_vqLzepDqTOUiE-10" value="" style="endArrow=classic;startArrow=classic;html=1;rounded=0;entryX=0.5;entryY=1;entryDx=0;entryDy=0;exitX=0.5;exitY=0;exitDx=0;exitDy=0;" edge="1" parent="1" source="u5Gszo_vqLzepDqTOUiE-6" target="u5Gszo_vqLzepDqTOUiE-9">
          <mxGeometry width="50" height="50" relative="1" as="geometry">
            <mxPoint x="400" y="260" as="sourcePoint" />
            <mxPoint x="450" y="210" as="targetPoint" />
          </mxGeometry>
        </mxCell>
        <mxCell id="u5Gszo_vqLzepDqTOUiE-12" value="" style="endArrow=classic;startArrow=classic;html=1;rounded=0;entryX=0;entryY=0.5;entryDx=0;entryDy=0;exitX=1;exitY=0.5;exitDx=0;exitDy=0;" edge="1" parent="1" source="u5Gszo_vqLzepDqTOUiE-13" target="u5Gszo_vqLzepDqTOUiE-9">
          <mxGeometry width="50" height="50" relative="1" as="geometry">
            <mxPoint x="260" y="100" as="sourcePoint" />
            <mxPoint x="310" y="50" as="targetPoint" />
          </mxGeometry>
        </mxCell>
        <mxCell id="u5Gszo_vqLzepDqTOUiE-13" value="Client" style="rounded=0;whiteSpace=wrap;html=1;" vertex="1" parent="1">
          <mxGeometry x="140" y="55" width="120" height="60" as="geometry" />
        </mxCell>
        <mxCell id="u5Gszo_vqLzepDqTOUiE-14" value="gRPC" style="text;html=1;strokeColor=none;fillColor=none;align=center;verticalAlign=middle;whiteSpace=wrap;rounded=0;" vertex="1" parent="1">
          <mxGeometry x="290" y="55" width="60" height="30" as="geometry" />
        </mxCell>
        <mxCell id="u5Gszo_vqLzepDqTOUiE-15" value="AKKA" style="rounded=0;whiteSpace=wrap;html=1;fillColor=#99FFFF;" vertex="1" parent="1">
          <mxGeometry x="410" y="100" width="90" height="30" as="geometry" />
        </mxCell>
        <mxCell id="u5Gszo_vqLzepDqTOUiE-16" value="Postgres DB" style="shape=cylinder3;whiteSpace=wrap;html=1;boundedLbl=1;backgroundOutline=1;size=15;" vertex="1" parent="1">
          <mxGeometry x="650" y="47.5" width="90" height="82.5" as="geometry" />
        </mxCell>
      </root>
    </mxGraphModel>
  </diagram>
</mxfile>
